<svg viewBox="0 0 33 24" fill="none" xmlns="http://www.w3.org/2000/svg">
<g clip-path="url(#clip0_72_12)">
<path d="M7.75618 11.5983C7.75618 11.5983 26.4158 3.27379 26.9162 4.13789C27.1006 4.44215 9.84996 15.0791 11.4565 14.0811L9.88947 20.8113C9.88947 20.8113 10.8244 20.7505 11.1273 20.7018C11.8911 20.6044 12.1018 20.215 13.7083 19.0466C14.7223 18.3164 15.8416 17.5983 15.8416 17.5983C18.3831 20.2636 18.7518 20.6044 18.7518 20.6044C20.5032 22.2231 22.4521 23.6105 22.4521 23.6105C23.071 23.9756 23.3344 24 23.3344 24C24.1113 24.0851 24.9014 22.0892 24.9014 22.077V22.0527L32.6313 2.68961C32.6313 2.68961 33.3555 0.924904 32.7498 0.304214C32.1309 -0.316476 30.1688 0.206851 30.1688 0.194681L1.69872 6.41375C1.69872 6.41375 0 6.90056 0 7.64296C0 8.16628 0.842777 8.55574 1.36951 8.79914C3.85834 9.93099 6.17598 10.929 7.75618 11.5983Z" fill="#3486b9"/>
</g>
<defs>
<clipPath id="clip0_72_12">
<rect width="33" height="24" fill="white"/>
</clipPath>
</defs>
</svg>
