<svg viewBox="0 0 36 26" fill="none" xmlns="http://www.w3.org/2000/svg">
<path d="M35.9196 6.61172C35.9196 5.93565 35.7702 5.09916 35.3795 4.26267C33.8628 0.985456 29.8181 0.412517 29.4044 0.366681C28.3703 0.297929 27.3246 0.240635 26.256 0.194799C23.6706 0.0687528 20.9818 0 18.1896 0C15.225 0 12.3754 0.0687528 9.65209 0.194799C8.59496 0.240635 7.54931 0.297929 6.52665 0.366681C6.1015 0.423975 2.04532 1.00837 0.528567 4.29705C0.0919247 5.23667 0 6.15337 0 6.87528V18.5747C0 18.8612 0 19.2164 0.0689435 19.5945V19.6289C0.114906 20.2591 0.252793 20.9696 0.58602 21.703C2.10278 24.9916 6.17044 25.576 6.58411 25.6333C7.52633 25.6906 8.49154 25.7479 9.46824 25.7823C12.2719 25.9198 15.202 26 18.247 26C20.9473 25.9885 23.5557 25.9312 26.0606 25.8167C27.2212 25.7708 28.3473 25.7021 29.4619 25.6333C29.887 25.576 33.9202 25.0145 35.4485 21.7373C35.8851 20.7748 36 19.8466 36 19.1247V7.41384C35.9885 7.18466 35.977 6.90965 35.9196 6.61172ZM14.3173 17.8184V7.58572L23.8545 12.7078L14.3173 17.8184Z" fill="#3486b9"/>
</svg>
