<svg viewBox="0 0 36 23" fill="none" xmlns="http://www.w3.org/2000/svg">
<path d="M0.150045 1.03976C0.150045 1.03976 0.253991 1.01344 0.473433 1.05292C1.55909 1.25029 1.70924 1.06608 4.27324 0.97397C6.7564 0.895023 7.22993 1.03976 7.51867 1.44765C7.74966 1.76344 7.76121 2.10555 7.81896 2.46081C7.95755 3.5266 8.43108 4.48713 9.3666 6.40818C10.0711 7.85555 12.2655 11.895 13.4205 11.4477C13.7439 11.3161 13.8825 10.8292 14.1597 9.85555C14.2636 9.48713 14.5524 8.35555 14.46 6.25029C14.3676 4.28976 14.3214 3.31608 13.7208 2.64502C13.074 1.92134 12.2655 1.96081 12.2424 1.55292C12.2193 1.05292 13.4205 0.605549 13.8825 0.434497C15.1645 -0.0523455 16.1693 -0.0260298 17.7631 0.0266018C19.1144 0.0660755 19.6226 0.22397 20.0499 0.618707C20.1192 0.684497 20.4773 1.0266 20.766 1.72397C21.1356 2.63186 21.0894 3.44765 20.9739 5.06608C20.8007 7.5266 20.7429 8.39502 20.8584 9.60555C20.9739 10.7634 21.0317 11.3819 21.3781 11.5398C22.3252 11.9608 24.4157 8.30292 24.7737 7.67134C25.663 6.11871 27.0952 3.11871 27.3146 2.0266C27.3146 1.98713 27.3493 1.85555 27.4301 1.71081C27.7882 1.13186 28.7237 1.25029 29.1972 1.28976C30.8026 1.4345 32.6043 1.28976 34.6486 1.11871C35.4917 1.05292 35.7458 0.987128 35.9075 1.19765C36.3348 1.78976 35.2954 3.51344 33.6207 6.23713C32.5235 8.01344 31.6919 10.0398 30.3753 11.6187C30.1789 11.8555 29.8555 12.224 29.7862 12.7898C29.6476 13.9871 30.791 14.9608 31.8536 16.0661C33.8055 18.1055 36.2078 21.3819 35.6881 22.3687C35.5264 22.6582 35.2145 22.5661 33.7015 22.6187C30.4908 22.7371 30.2944 23.224 28.9778 22.8687C28.6197 22.7766 27.1645 22.3819 25.9518 21.0266C25.0394 20.0003 24.7968 19.0003 23.5148 18.1713C23.0297 17.8556 22.5562 17.5661 22.1173 17.7503C21.3666 18.0792 21.1472 19.6055 21.0086 20.6055C20.8584 21.645 20.9855 21.8292 20.8584 22.1187C20.2694 23.4477 16.1924 22.8819 13.4089 21.6977C3.81126 17.6319 -0.912515 1.85555 0.150045 1.03976Z" fill="#3486b9"/>
</svg>
