<svg width="47" height="44" viewBox="0 0 47 44" fill="none" xmlns="http://www.w3.org/2000/svg">
<g clip-path="url(#clip0_72_58)">
<path d="M41.5779 12.851C41.6387 12.4527 41.6735 12.0457 41.6735 11.63C41.6735 7.3521 38.1891 3.87955 33.8967 3.87955C32.8713 3.87955 31.8981 4.07872 31.0031 4.43377C29.552 1.79256 26.7367 0 23.4957 0C20.2546 0 17.2916 1.88782 15.8839 4.65893C14.9802 4.29522 13.981 4.08738 12.9383 4.08738C8.64578 4.08738 5.1614 7.55127 5.1614 11.8292C5.1614 12.2015 5.18747 12.5652 5.2396 12.9203C2.18968 13.9595 0 16.8431 0 20.2377C0 24.5156 3.47569 27.9882 7.76816 27.9882C10.4097 27.9882 12.7558 26.6719 14.1547 24.6542C16.2054 26.6719 19.629 27.9882 23.4957 27.9882C27.3624 27.9882 30.7946 26.6633 32.8453 24.6455C34.2442 26.6633 36.5816 27.9882 39.2318 27.9882C43.5243 27.9882 47 24.5156 47 20.2377C47 16.7739 44.7234 13.8469 41.5779 12.851ZM38.5628 25.321C36.4513 25.321 34.6092 24.1779 33.636 22.472C31.6809 24.4983 27.9185 25.8752 23.5999 25.8752C19.2814 25.8752 15.3799 24.4464 13.4596 22.3594C12.4951 24.126 10.6269 25.321 8.47199 25.321C5.32649 25.321 2.78924 22.7837 2.78924 19.6575C2.78924 16.9038 4.76169 14.6089 7.37715 14.098C7.36846 14.0028 7.36846 13.9075 7.36846 13.8122C7.36846 9.82877 10.6095 6.5987 14.6066 6.5987C15.267 6.5987 15.91 6.6853 16.5182 6.84983C17.5348 4.07006 20.2024 2.07833 23.3479 2.07833C26.2067 2.07833 28.6831 3.73234 29.8562 6.13108C30.7772 5.70675 31.8026 5.47294 32.88 5.47294C36.8771 5.47294 40.1181 8.70301 40.1181 12.6951C40.1181 13.2061 40.066 13.6997 39.9617 14.176C42.4208 14.7908 44.2455 17.0163 44.2455 19.6575C44.2455 22.7837 41.6996 25.321 38.5628 25.321Z" fill="white"/>
<path d="M9.77537 26.5334C9.47994 26.8797 14.5197 29.5296 16.6485 35.7126C18.0996 39.9213 17.5957 43.974 18.2039 44C18.6297 44.0173 19.0642 41.9909 19.2032 41.125C19.2292 40.9691 19.6463 38.2499 18.873 35.6001C17.1525 29.7374 10.1229 26.1263 9.77537 26.5334Z" fill="white"/>
<path d="M12.5472 23.8489C12.3561 24.204 14.8846 25.4163 17.2047 28.5511C19.7419 31.989 19.9591 34.9333 20.8628 34.8208C21.8273 34.6995 22.5312 31.6513 22.3052 29.1487C22.1662 27.6765 21.697 26.265 21.4189 26.2909C20.941 26.3429 21.3581 30.794 20.5239 30.9585C19.8114 31.1057 19.3161 27.9017 16.4661 25.5549C14.7195 24.1087 12.7036 23.5372 12.5386 23.8402L12.5472 23.8489Z" fill="white"/>
<path d="M37.2941 26.5334C37.5896 26.8797 32.5498 29.5296 30.421 35.7126C28.9699 39.9213 29.4738 43.974 28.8656 44C28.4398 44.0173 28.0054 41.9909 27.8663 41.125C27.8403 40.9691 27.4232 38.2499 28.1965 35.6001C29.917 29.7374 36.9466 26.1263 37.2941 26.5334Z" fill="white"/>
<path d="M34.5223 23.8489C34.7134 24.204 32.1849 25.4163 29.8648 28.5511C27.3276 31.989 27.1104 34.9333 26.2067 34.8208C25.2335 34.6995 24.4775 31.6686 24.7643 29.1487C24.9207 27.8064 25.3812 26.4901 25.6593 26.5161C26.1459 26.5681 25.7375 30.7853 26.5369 30.9585C27.2407 31.1057 27.7534 27.9017 30.5947 25.5549C32.3413 24.1087 34.3572 23.5372 34.5223 23.8402V23.8489Z" fill="white"/>
</g>
<defs>
<clipPath id="clip0_72_58">
<rect width="47" height="44" fill="white"/>
</clipPath>
</defs>
</svg>
