<svg width="41" height="44" viewBox="0 0 41 44" fill="none" xmlns="http://www.w3.org/2000/svg">
<g clip-path="url(#clip0_75_71)">
<path d="M20.0823 18.4213C13.107 18.4132 6.39941 18.22 0 17.8899L5.7911 41.8423C9.41662 42.9534 14.6562 44.0967 21.015 43.992C26.579 43.8954 31.2184 42.8729 34.5763 41.8423C36.7175 33.8555 38.8588 25.8687 41 17.8899C34.341 18.2361 27.3658 18.4293 20.0823 18.4213ZM32.3377 40.2562C29.8396 41.2385 25.8734 42.4462 20.8772 42.5508C15.0131 42.6635 10.4061 41.1982 7.76202 40.1194C6.44807 33.7669 5.14224 27.4226 3.82829 21.0701C9.07596 21.3117 14.5345 21.4566 20.1877 21.4807C26.1654 21.4968 31.924 21.3761 37.4394 21.1426C37.0582 23.8639 36.5066 26.867 35.6793 30.0795C34.6979 33.9119 33.5219 37.3095 32.3296 40.2562H32.3377Z" fill="white"/>
<path d="M6.69951 17.3746C7.08882 17.4471 6.98338 12.1977 11.0063 8.11569C11.6795 7.43938 14.9968 4.06592 20.1147 4.07397C25.0136 4.07397 28.2417 7.17369 29.2231 8.11569C33.4894 12.2057 33.7084 17.3666 34.1707 17.2619C34.7466 17.125 35.5171 8.80004 30.0748 3.67946C26.3276 0.153016 21.6396 -0.0241113 20.1066 4.23672e-05C18.8657 0.0161448 14.2993 0.153016 10.5765 3.67946C5.13412 8.8403 6.21286 17.278 6.69951 17.3746Z" fill="white"/>
<path d="M7.42948 24.5563C7.04016 24.7656 7.57547 26.1987 8.36222 29.3146C9.86271 35.3127 9.70861 37.3577 10.1709 37.3658C10.9009 37.3738 12.5636 32.2613 10.5927 28.0425C9.65183 26.0297 7.92423 24.2986 7.43759 24.5563H7.42948Z" fill="white"/>
<path d="M14.5264 24.9588C14.2669 25.0232 14.5102 26.1021 15.0617 29.0247C16.3757 35.9487 16.3757 36.931 16.6433 36.939C17.1705 36.9551 18.1357 33.0986 16.9191 29.1615C16.2297 26.9475 14.8995 24.8622 14.5264 24.9588Z" fill="white"/>
<path d="M33.0677 24.5563C33.457 24.7656 32.9217 26.1987 32.1349 29.3146C30.6344 35.3127 30.7885 37.3577 30.3262 37.3658C29.5962 37.3738 27.9335 32.2613 29.9044 28.0425C30.8453 26.0297 32.5729 24.2986 33.0595 24.5563H33.0677Z" fill="white"/>
<path d="M25.9707 24.9588C26.2303 25.0232 25.9869 26.1021 25.4354 29.0247C24.1215 35.9487 24.1215 36.931 23.8538 36.939C23.3266 36.9551 22.3614 33.0986 23.578 29.1615C24.2675 26.9475 25.5976 24.8622 25.9707 24.9588Z" fill="white"/>
</g>
<defs>
<clipPath id="clip0_75_71">
<rect width="41" height="44" fill="white"/>
</clipPath>
</defs>
</svg>
