<svg width="120" height="91" viewBox="0 0 120 91" fill="none" xmlns="http://www.w3.org/2000/svg">
<g clip-path="url(#clip0_8_40)">
<path d="M112.44 50.87C112.48 51.24 112.5 51.62 112.5 52C112.5 57.8 107.8 62.5 102 62.5C100.39 62.5 98.87 62.14 97.51 61.49C102.52 61.22 106.5 57.08 106.5 52C106.5 51.5 106.46 51.01 106.39 50.53C110 48.88 112.5 45.23 112.5 41C112.5 35.2 107.8 30.5 102 30.5C101.29 30.5 100.6 30.57 99.93 30.7C98.04 23.68 91.62 18.5 84 18.5C80.81 18.5 77.83 19.41 75.31 20.98C74.1 13.34 67.48 7.5 59.5 7.5C52.18 7.5 46.02 12.41 44.11 19.11C41.96 18.08 39.55 17.5 37 17.5C29.38 17.5 22.96 22.68 21.07 29.7C20.4 29.57 19.71 29.5 19 29.5C13.2 29.5 8.5 34.2 8.5 40C8.5 44.23 11 47.88 14.61 49.53C14.54 50.01 14.5 50.5 14.5 51C14.5 56.25 18.75 60.5 24 60.5H24.16C22.43 61.76 20.3 62.5 18 62.5C12.2 62.5 7.5 57.8 7.5 52C7.5 51.62 7.52 51.24 7.56 50.87C3.35 48.59 0.5 44.13 0.5 39C0.5 31.54 6.54 25.5 14 25.5C14.96 25.5 15.9 25.6 16.8 25.79C18.3 17.66 25.44 11.5 34 11.5C36.96 11.5 39.75 12.24 42.2 13.54C44.35 6.01 51.28 0.5 59.5 0.5C67.72 0.5 74.96 6.26 76.94 14.04C79.58 12.42 82.68 11.5 86 11.5C94.56 11.5 101.7 17.66 103.2 25.79C104.1 25.6 105.04 25.5 106 25.5C113.46 25.5 119.5 31.54 119.5 39C119.5 44.13 116.65 48.59 112.44 50.87Z" fill="white" stroke="white" stroke-miterlimit="10"/>
<path d="M85.57 62.4501C80.82 60.6701 71.07 58.0701 59.66 58.0001C47.86 57.9201 37.78 60.5701 32.87 62.3901C31.85 62.7701 31.06 63.1101 30.51 63.4001C30.54 63.5901 30.58 63.7901 30.62 63.9901C31.16 66.7401 31.86 70.3701 32.66 75.0001C33.87 82.0501 34.46 86.6501 34.84 89.4301C34.87 89.6001 34.89 89.7701 34.91 89.9301C35.38 89.8701 35.97 89.7701 36.69 89.6601C40.74 89.0401 48.58 87.9001 58.66 88.0001C69.14 88.1101 77.33 89.5101 81.82 90.3801C82.37 90.4801 82.86 90.5801 83.3 90.6701C83.32 90.4501 83.36 90.2201 83.4 89.9601C83.78 87.2401 84.38 82.5001 85.66 75.0001C86.45 70.3601 87.14 66.7401 87.67 64.0001H87.68C87.71 63.7901 87.75 63.5901 87.79 63.3901C87.27 63.1201 86.52 62.8001 85.57 62.4501Z" fill="white"/>
</g>
<defs>
<clipPath id="clip0_8_40">
<rect width="120" height="90.67" fill="white"/>
</clipPath>
</defs>
</svg>
