<svg width="48" height="33" viewBox="0 0 48 33" fill="none" xmlns="http://www.w3.org/2000/svg">
<g clip-path="url(#clip0_72_52)">
<path d="M10.4524 0H12.4077V32.9279H10.4524C9.37114 32.9279 8.4971 32.0538 8.4971 30.9724V1.95549C8.4971 0.874113 9.37114 0 10.4524 0Z" fill="white"/>
<path d="M5.69492 3.875V29.1972H4.19915C3.37016 29.1972 2.70337 28.3231 2.70337 27.2417V19.4198H1.94647C0.865188 19.4198 -0.0088501 18.2753 -0.0088501 16.8605V16.1757C-0.0088501 14.7609 0.865188 13.6164 1.94647 13.6164H2.70337V5.8395C2.70337 4.75812 3.37016 3.875 4.19915 3.875H5.69492Z" fill="white"/>
<path d="M31.6816 13.5623H16.1201V19.3656H31.6816V13.5623Z" fill="white"/>
<path d="M37.5476 0.0720215H35.5923V32.9999H37.5476C38.6289 32.9999 39.5029 32.1258 39.5029 31.0444V2.02751C39.5029 0.946134 38.6289 0.0720215 37.5476 0.0720215Z" fill="white"/>
<path d="M42.3052 3.94702V29.2693H43.801C44.63 29.2693 45.2968 28.3951 45.2968 27.3138V19.4918H46.0537C47.135 19.4918 48.009 18.3474 48.009 16.9326V16.2477C48.009 14.8329 47.135 13.6884 46.0537 13.6884H45.2968V5.91152C45.2968 4.83015 44.63 3.94702 43.801 3.94702H42.3052Z" fill="white"/>
</g>
<defs>
<clipPath id="clip0_72_52">
<rect width="48" height="33" fill="white"/>
</clipPath>
</defs>
</svg>
